<mxfile host="app.diagrams.net" agent="Mozilla/5.0 (Windows NT 10.0; Win64; x64) AppleWebKit/537.36 (KHTML, like Gecko) Chrome/140.0.0.0 Safari/537.36" version="28.2.0">
  <diagram name="Page-1" id="qYagt-tdf9SEfUXRLQJ1">
    <mxGraphModel dx="1188" dy="619" grid="1" gridSize="10" guides="1" tooltips="1" connect="1" arrows="1" fold="1" page="1" pageScale="1" pageWidth="850" pageHeight="1100" math="0" shadow="0">
      <root>
        <mxCell id="0" />
        <mxCell id="1" parent="0" />
        <mxCell id="x8hEaEORKSMTuPK2IvQO-18" value="" style="rounded=1;whiteSpace=wrap;html=1;" vertex="1" parent="1">
          <mxGeometry x="430" y="28.3" width="290" height="220" as="geometry" />
        </mxCell>
        <mxCell id="x8hEaEORKSMTuPK2IvQO-17" value="" style="rounded=1;whiteSpace=wrap;html=1;" vertex="1" parent="1">
          <mxGeometry x="20" y="30" width="250" height="220" as="geometry" />
        </mxCell>
        <mxCell id="x8hEaEORKSMTuPK2IvQO-1" value="" style="pointerEvents=1;shadow=0;dashed=0;html=1;strokeColor=none;fillColor=#4495D1;labelPosition=center;verticalLabelPosition=bottom;verticalAlign=top;align=center;outlineConnect=0;shape=mxgraph.veeam.cpu;" vertex="1" parent="1">
          <mxGeometry x="175.1" y="115.9" width="44.8" height="44.8" as="geometry" />
        </mxCell>
        <mxCell id="x8hEaEORKSMTuPK2IvQO-2" value="" style="pointerEvents=1;shadow=0;dashed=0;html=1;strokeColor=none;fillColor=#4495D1;labelPosition=center;verticalLabelPosition=bottom;verticalAlign=top;align=center;outlineConnect=0;shape=mxgraph.veeam.cpu;" vertex="1" parent="1">
          <mxGeometry x="482.6" y="114.2" width="44.8" height="44.8" as="geometry" />
        </mxCell>
        <mxCell id="x8hEaEORKSMTuPK2IvQO-5" value="" style="image;points=[];aspect=fixed;html=1;align=center;shadow=0;dashed=0;image=img/lib/allied_telesis/computer_and_terminals/Personal_Computer.svg;" vertex="1" parent="1">
          <mxGeometry x="609.6" y="103.7" width="45.6" height="61.800000000000004" as="geometry" />
        </mxCell>
        <mxCell id="x8hEaEORKSMTuPK2IvQO-7" value="" style="sketch=0;aspect=fixed;pointerEvents=1;shadow=0;dashed=0;html=1;strokeColor=none;labelPosition=center;verticalLabelPosition=bottom;verticalAlign=top;align=center;fillColor=#00188D;shape=mxgraph.mscae.enterprise.usb" vertex="1" parent="1">
          <mxGeometry x="557.6" y="130.10000000000002" width="28.26" height="13" as="geometry" />
        </mxCell>
        <mxCell id="x8hEaEORKSMTuPK2IvQO-11" value="Physical USB Connection" style="rounded=1;whiteSpace=wrap;html=1;" vertex="1" parent="1">
          <mxGeometry x="534.6600000000001" y="182.20000000000002" width="74.13" height="60" as="geometry" />
        </mxCell>
        <mxCell id="x8hEaEORKSMTuPK2IvQO-12" value="" style="shape=mxgraph.signs.tech.video_camera;html=1;pointerEvents=1;fillColor=#000000;strokeColor=none;verticalLabelPosition=bottom;verticalAlign=top;align=center;rotation=90;" vertex="1" parent="1">
          <mxGeometry x="55" y="123.30000000000001" width="50" height="30" as="geometry" />
        </mxCell>
        <mxCell id="x8hEaEORKSMTuPK2IvQO-13" value="Data Acquisition ESP32" style="rounded=1;whiteSpace=wrap;html=1;" vertex="1" parent="1">
          <mxGeometry x="150" y="44" width="95" height="50" as="geometry" />
        </mxCell>
        <mxCell id="x8hEaEORKSMTuPK2IvQO-14" value="Data Bridge ESP32" style="rounded=1;whiteSpace=wrap;html=1;" vertex="1" parent="1">
          <mxGeometry x="460" y="42.199999999999996" width="90" height="48.5" as="geometry" />
        </mxCell>
        <mxCell id="x8hEaEORKSMTuPK2IvQO-15" value="Time-of-Flight Sensor" style="rounded=1;whiteSpace=wrap;html=1;" vertex="1" parent="1">
          <mxGeometry x="40" y="43.9" width="80" height="48.5" as="geometry" />
        </mxCell>
        <mxCell id="x8hEaEORKSMTuPK2IvQO-16" value="" style="shape=flexArrow;endArrow=classic;html=1;rounded=0;" edge="1" parent="1">
          <mxGeometry width="50" height="50" relative="1" as="geometry">
            <mxPoint x="115.53999999999999" y="135.88" as="sourcePoint" />
            <mxPoint x="160.54" y="136.38" as="targetPoint" />
          </mxGeometry>
        </mxCell>
        <mxCell id="x8hEaEORKSMTuPK2IvQO-19" value="Camera Cart Computer" style="rounded=1;whiteSpace=wrap;html=1;" vertex="1" parent="1">
          <mxGeometry x="590" y="42.55" width="92.4" height="48.15" as="geometry" />
        </mxCell>
        <mxCell id="x8hEaEORKSMTuPK2IvQO-20" value="Direct Wire Connection" style="rounded=1;whiteSpace=wrap;html=1;" vertex="1" parent="1">
          <mxGeometry x="100.97" y="183.9" width="74.13" height="60" as="geometry" />
        </mxCell>
        <mxCell id="x8hEaEORKSMTuPK2IvQO-24" value="Wireless ESPNOW Connection Between ESP32&#39;s" style="rounded=1;whiteSpace=wrap;html=1;" vertex="1" parent="1">
          <mxGeometry x="290" y="70" width="120" height="45.9" as="geometry" />
        </mxCell>
        <mxCell id="x8hEaEORKSMTuPK2IvQO-26" value="" style="sketch=0;pointerEvents=1;shadow=0;dashed=0;html=1;strokeColor=none;fillColor=#434445;aspect=fixed;labelPosition=center;verticalLabelPosition=bottom;verticalAlign=top;align=center;outlineConnect=0;shape=mxgraph.vvd.wi_fi;rotation=45;" vertex="1" parent="1">
          <mxGeometry x="330" y="133.9" width="50" height="50" as="geometry" />
        </mxCell>
      </root>
    </mxGraphModel>
  </diagram>
</mxfile>
